<?xml version="1.0" encoding="utf-8"?>
<!-- Generator: Adobe Illustrator 16.2.0, SVG Export Plug-In . SVG Version: 6.00 Build 0)  -->
<!DOCTYPE svg PUBLIC "-//W3C//DTD SVG 1.1//EN" "http://www.w3.org/Graphics/SVG/1.1/DTD/svg11.dtd">
<svg version="1.1" id="Слой_2" xmlns="http://www.w3.org/2000/svg" xmlns:xlink="http://www.w3.org/1999/xlink" x="0px" y="0px"
	 width="100px" height="100px" viewBox="0 0 100 100" enable-background="new 0 0 100 100" xml:space="preserve">
<g id="Слой_1">
	<path fill="#232856" d="M78.501,31.488"/>
	<path fill="none" stroke="#14152D" stroke-miterlimit="10" d="M52.375,74"/>
	<path fill="none" stroke="#14152D" stroke-miterlimit="10" d="M44.5,74"/>
	<path fill="none" stroke="#14152D" stroke-miterlimit="10" d="M50,86.5"/>
	<path fill="none" stroke="#14152D" stroke-miterlimit="10" d="M52.375,74"/>
	<path fill="none" stroke="#14152D" stroke-miterlimit="10" d="M56.125,86.5"/>
	<path fill="none" stroke="#14152D" stroke-miterlimit="10" d="M50,86.5"/>
	<path fill="none" stroke="#14152D" stroke-miterlimit="10" d="M53.063,99.25"/>
	<path fill="none" stroke="#14152D" stroke-miterlimit="10" d="M56.125,86.5"/>
	<path fill="none" stroke="#14152D" stroke-miterlimit="10" d="M52.375,89.375"/>
	<path fill="none" stroke="#14152D" stroke-miterlimit="10" d="M53.063,99.25"/>
	<path fill="none" stroke="#14152D" stroke-miterlimit="10" d="M45.5,89.375"/>
	<path fill="none" stroke="#14152D" stroke-miterlimit="10" d="M52.375,89.375"/>
	<path fill="none" stroke="#14152D" stroke-miterlimit="10" d="M45.5,74"/>
	<path fill="none" stroke="#14152D" stroke-miterlimit="10" d="M46.875,89.375"/>
	<path fill="#14152D" d="M24.178,81.357"/>
	<path fill="none" stroke="#14152D" stroke-miterlimit="10" d="M11.333,7.167"/>
	<path fill="none" stroke="#14152D" stroke-miterlimit="10" d="M64.071,35.6"/>
	<path fill="none" stroke="#14152D" stroke-miterlimit="10" d="M65.644,68.666"/>
	<path fill="#FFFFFF" d="M65.751,68.006c-1.4,0.48-2.859,0.83-4.38,1.029c-12.46,1.66-23.9-7.09-25.561-19.539
		c-1.659-12.46,7.091-23.9,19.541-25.56c1.529-0.2,3.039-0.25,4.52-0.15c-7.949,4.9-12.699,14.17-11.39,24.02
		C49.791,57.666,56.801,65.355,65.751,68.006z"/>
	<circle fill="#FFFFFF" cx="68.193" cy="30.166" r="1.833"/>
	<circle fill="#FFFFFF" cx="30.481" cy="32" r="1.833"/>
	<circle fill="#FFFFFF" cx="30.091" cy="59.333" r="1"/>
	<circle fill="#FFFFFF" cx="64.071" cy="38.25" r="1"/>
	<circle fill="#FFFFFF" cx="66.36" cy="55.732" r="1.649"/>
	<circle fill="#FFFFFF" cx="24.926" cy="51.648" r="1.649"/>
</g>
</svg>
