<?xml version="1.0" encoding="utf-8"?>
<!-- Generator: Adobe Illustrator 16.2.0, SVG Export Plug-In . SVG Version: 6.00 Build 0)  -->
<!DOCTYPE svg PUBLIC "-//W3C//DTD SVG 1.1//EN" "http://www.w3.org/Graphics/SVG/1.1/DTD/svg11.dtd">
<svg version="1.1" id="Слой_2" xmlns="http://www.w3.org/2000/svg" xmlns:xlink="http://www.w3.org/1999/xlink" x="0px" y="0px"
	 width="100px" height="100px" viewBox="0 0 100 100" enable-background="new 0 0 100 100" xml:space="preserve">
<g id="Слой_1">
	<path fill="#232856" d="M78.501,31.488"/>
	<path fill="none" stroke="#14152D" stroke-miterlimit="10" d="M52.375,74"/>
	<path fill="none" stroke="#14152D" stroke-miterlimit="10" d="M44.5,74"/>
	<path fill="none" stroke="#14152D" stroke-miterlimit="10" d="M50,86.5"/>
	<path fill="none" stroke="#14152D" stroke-miterlimit="10" d="M52.375,74"/>
	<path fill="none" stroke="#14152D" stroke-miterlimit="10" d="M56.125,86.5"/>
	<path fill="none" stroke="#14152D" stroke-miterlimit="10" d="M50,86.5"/>
	<path fill="none" stroke="#14152D" stroke-miterlimit="10" d="M53.063,99.25"/>
	<path fill="none" stroke="#14152D" stroke-miterlimit="10" d="M56.125,86.5"/>
	<path fill="none" stroke="#14152D" stroke-miterlimit="10" d="M52.375,89.375"/>
	<path fill="none" stroke="#14152D" stroke-miterlimit="10" d="M53.063,99.25"/>
	<path fill="none" stroke="#14152D" stroke-miterlimit="10" d="M45.5,89.375"/>
	<path fill="none" stroke="#14152D" stroke-miterlimit="10" d="M52.375,89.375"/>
	<path fill="none" stroke="#14152D" stroke-miterlimit="10" d="M45.5,74"/>
	<path fill="none" stroke="#14152D" stroke-miterlimit="10" d="M46.875,89.375"/>
	<path fill="#14152D" d="M24.178,81.357"/>
	<path fill="none" stroke="#14152D" stroke-miterlimit="10" d="M11.333,7.167"/>
	<path fill="none" stroke="#14152D" stroke-miterlimit="10" d="M64.071,35.6"/>
	<path fill="none" stroke="#14152D" stroke-miterlimit="10" d="M65.644,68.666"/>
	<g>
		<g>
			<path fill="#FFFFFF" d="M96.69,50.57c0,10.55-8.561,19.1-19.101,19.1H15.87c-6.19,0-11.2-5.02-11.2-11.2
				c0-5.76,4.34-10.5,9.93-11.12c0.42-0.06,0.84-0.08,1.27-0.08c0.21,0,0.42,0.01,0.62,0.02c0.28,0.01,0.56,0.04,0.84,0.08
				c0.19-0.38,0.4-0.76,0.62-1.12c1.13-1.87,2.67-3.49,4.47-4.78c0.31-0.21,0.62-0.41,0.94-0.61c0.48-0.3,0.97-0.57,1.47-0.82
				c2.22-1.09,4.69-1.71,7.22-1.71c0.51,0,0.02,5.66,0.52,5.71c0.34-7.3,3.87-13.75,9.24-17.98c0.01-0.01,0.02-0.02,0.03-0.03
				c0.48-0.4,0.97-0.76,1.48-1.1c3.9-2.65,8.621-4.2,13.69-4.2c10.681,0,19.75,6.84,23.09,16.37c0,0,0,0,0.011,0
				c0.02,0.01,0.04,0.02,0.06,0.02c0.38,0-1.12-5.59-0.75-5.57C89.45,32.14,96.69,40.4,96.69,50.57z"/>
		</g>
	</g>
</g>
<g>
	<g>
		
			<ellipse fill="none" stroke="#FFFFFF" stroke-width="8" stroke-miterlimit="10" stroke-dasharray="3.9948,3.9948" cx="30.725" cy="37.867" rx="24.163" ry="24.171"/>
	</g>
</g>
<path fill="#FFFFFF" d="M30.729,21.45c-9.07,0-16.42,7.35-16.42,16.42c0,2.22,0.44,4.33,1.24,6.26c1.13-1.87,2.67-3.49,4.47-4.78
	c0.31-0.21,0.62-0.41,0.94-0.61c0.48-0.3,0.97-0.57,1.47-0.82c2.22-1.09,4.69-1.71,7.22-1.71c0.065,0,0.994,0.047,1.471,0.022
	c1.433-4.925,4.366-9.202,8.289-12.292C36.89,22.36,33.919,21.45,30.729,21.45z"/>
</svg>
