<?xml version="1.0" encoding="utf-8"?>
<!-- Generator: Adobe Illustrator 16.2.0, SVG Export Plug-In . SVG Version: 6.00 Build 0)  -->
<!DOCTYPE svg PUBLIC "-//W3C//DTD SVG 1.1//EN" "http://www.w3.org/Graphics/SVG/1.1/DTD/svg11.dtd">
<svg version="1.1" id="Слой_2" xmlns="http://www.w3.org/2000/svg" xmlns:xlink="http://www.w3.org/1999/xlink" x="0px" y="0px"
	 width="100px" height="100px" viewBox="0 0 100 100" enable-background="new 0 0 100 100" xml:space="preserve">
<g id="Слой_1">
	<path fill="#232856" d="M78.501,31.488"/>
	<path fill="none" stroke="#14152D" stroke-miterlimit="10" d="M52.375,74"/>
	<path fill="none" stroke="#14152D" stroke-miterlimit="10" d="M44.5,74"/>
	<path fill="none" stroke="#14152D" stroke-miterlimit="10" d="M50,86.5"/>
	<path fill="none" stroke="#14152D" stroke-miterlimit="10" d="M52.375,74"/>
	<path fill="none" stroke="#14152D" stroke-miterlimit="10" d="M56.125,86.5"/>
	<path fill="none" stroke="#14152D" stroke-miterlimit="10" d="M50,86.5"/>
	<path fill="none" stroke="#14152D" stroke-miterlimit="10" d="M53.063,99.25"/>
	<path fill="none" stroke="#14152D" stroke-miterlimit="10" d="M56.125,86.5"/>
	<path fill="none" stroke="#14152D" stroke-miterlimit="10" d="M52.375,89.375"/>
	<path fill="none" stroke="#14152D" stroke-miterlimit="10" d="M53.063,99.25"/>
	<path fill="none" stroke="#14152D" stroke-miterlimit="10" d="M45.5,89.375"/>
	<path fill="none" stroke="#14152D" stroke-miterlimit="10" d="M52.375,89.375"/>
	<path fill="none" stroke="#14152D" stroke-miterlimit="10" d="M45.5,74"/>
	<path fill="none" stroke="#14152D" stroke-miterlimit="10" d="M46.875,89.375"/>
	<path fill="#14152D" d="M24.178,81.357"/>
	<path fill="none" stroke="#14152D" stroke-miterlimit="10" d="M11.333,7.167"/>
	<path fill="none" stroke="#14152D" stroke-miterlimit="10" d="M64.071,35.6"/>
	<path fill="none" stroke="#14152D" stroke-miterlimit="10" d="M65.644,68.666"/>
	<g>
		<g>
			<path fill="#FFFFFF" d="M96.69,50.57c0,10.55-8.561,19.1-19.101,19.1H15.87c-6.19,0-11.2-5.02-11.2-11.2
				c0-5.76,4.34-10.5,9.93-11.12c0.42-0.06,0.84-0.08,1.27-0.08c0.21,0,0.42,0.01,0.62,0.02c0.28,0.01,0.56,0.04,0.84,0.08
				c1.56-3.16,4.27-5.75,7.5-7.33c2.22-1.09,4.69-1.71,7.22-1.71c0.51,0,0.02,5.66,0.52,5.71c0.6-12.97,11.32-23.31,24.44-23.31
				c10.681,0,19.75,6.84,23.09,16.37c0,0,0,0,0.011,0c0.02,0.01,0.04,0.02,0.06,0.02c0.38,0-1.12-5.59-0.75-5.57
				C89.45,32.14,96.69,40.4,96.69,50.57z"/>
		</g>
	</g>
	<path fill="#FFFFFF" d="M23.043,34.75c0.14,1.07,0.35,2.11,0.62,3.12c-3.23,1.58-5.94,4.17-7.5,7.33
		c-0.28-0.04-0.56-0.07-0.84-0.08c-0.2-0.01-0.41-0.02-0.62-0.02c-0.43,0-0.85,0.02-1.27,0.08c-1.57-2.59-2.64-5.55-3.06-8.74
		c-1.66-12.46,7.09-23.9,19.54-25.56c1.53-0.2,3.04-0.25,4.52-0.15C26.483,15.629,21.733,24.899,23.043,34.75z"/>
</g>
</svg>
