<?xml version="1.0" encoding="utf-8"?>
<!-- Generator: Adobe Illustrator 16.2.0, SVG Export Plug-In . SVG Version: 6.00 Build 0)  -->
<!DOCTYPE svg PUBLIC "-//W3C//DTD SVG 1.1//EN" "http://www.w3.org/Graphics/SVG/1.1/DTD/svg11.dtd">
<svg version="1.1" id="Слой_2" xmlns="http://www.w3.org/2000/svg" xmlns:xlink="http://www.w3.org/1999/xlink" x="0px" y="0px"
	 width="100px" height="100px" viewBox="0 0 100 100" enable-background="new 0 0 100 100" xml:space="preserve">
<g id="Слой_1">
	<path fill="#232856" d="M78.501,31.488"/>
	<g>
		<g>
			<path fill="#FFFFFF" d="M96.69,50.57c0,10.55-8.561,19.1-19.101,19.1H15.87c-6.19,0-11.2-5.02-11.2-11.2
				c0-6.189,5.01-11.2,11.2-11.2c0.208,0,0.415,0.005,0.622,0.017c0.281,0.016,0.562,0.042,0.838,0.083
				c2.64-5.33,8.52-9.04,14.72-9.04c0.51,0,0.02,5.66,0.52,5.71c0.6-12.97,11.32-23.31,24.44-23.31c10.681,0,19.75,6.84,23.09,16.37
				c0,0,0,0,0.011,0c0.02,0.01,0.04,0.02,0.06,0.02c0.38,0-1.12-5.59-0.75-5.57C89.45,32.14,96.69,40.4,96.69,50.57z"/>
		</g>
	</g>
	<path fill="none" stroke="#14152D" stroke-miterlimit="10" d="M52.375,74"/>
	<path fill="none" stroke="#14152D" stroke-miterlimit="10" d="M44.5,74"/>
	<path fill="none" stroke="#14152D" stroke-miterlimit="10" d="M50,86.5"/>
	<path fill="none" stroke="#14152D" stroke-miterlimit="10" d="M52.375,74"/>
	<path fill="none" stroke="#14152D" stroke-miterlimit="10" d="M56.125,86.5"/>
	<path fill="none" stroke="#14152D" stroke-miterlimit="10" d="M50,86.5"/>
	<path fill="none" stroke="#14152D" stroke-miterlimit="10" d="M53.063,99.25"/>
	<path fill="none" stroke="#14152D" stroke-miterlimit="10" d="M56.125,86.5"/>
	<path fill="none" stroke="#14152D" stroke-miterlimit="10" d="M52.375,89.375"/>
	<path fill="none" stroke="#14152D" stroke-miterlimit="10" d="M53.063,99.25"/>
	<path fill="none" stroke="#14152D" stroke-miterlimit="10" d="M45.5,89.375"/>
	<path fill="none" stroke="#14152D" stroke-miterlimit="10" d="M52.375,89.375"/>
	<path fill="none" stroke="#14152D" stroke-miterlimit="10" d="M45.5,74"/>
	<path fill="none" stroke="#14152D" stroke-miterlimit="10" d="M46.875,89.375"/>
	<path fill="#14152D" d="M24.178,81.357"/>
</g>
</svg>
