<?xml version="1.0" encoding="utf-8"?>
<!-- Generator: Adobe Illustrator 16.2.0, SVG Export Plug-In . SVG Version: 6.00 Build 0)  -->
<!DOCTYPE svg PUBLIC "-//W3C//DTD SVG 1.1//EN" "http://www.w3.org/Graphics/SVG/1.1/DTD/svg11.dtd">
<svg version="1.1" id="Слой_2" xmlns="http://www.w3.org/2000/svg" xmlns:xlink="http://www.w3.org/1999/xlink" x="0px" y="0px"
	 width="100px" height="100px" viewBox="0 0 100 100" enable-background="new 0 0 100 100" xml:space="preserve">
<g id="Слой_1">
	<path fill="#232856" d="M78.501,31.488"/>
	<path fill="none" stroke="#14152D" stroke-miterlimit="10" d="M52.375,74"/>
	<path fill="none" stroke="#14152D" stroke-miterlimit="10" d="M44.5,74"/>
	<path fill="none" stroke="#14152D" stroke-miterlimit="10" d="M50,86.5"/>
	<path fill="none" stroke="#14152D" stroke-miterlimit="10" d="M52.375,74"/>
	<path fill="none" stroke="#14152D" stroke-miterlimit="10" d="M56.125,86.5"/>
	<path fill="none" stroke="#14152D" stroke-miterlimit="10" d="M50,86.5"/>
	<path fill="none" stroke="#14152D" stroke-miterlimit="10" d="M53.063,99.25"/>
	<path fill="none" stroke="#14152D" stroke-miterlimit="10" d="M56.125,86.5"/>
	<path fill="none" stroke="#14152D" stroke-miterlimit="10" d="M52.375,89.375"/>
	<path fill="none" stroke="#14152D" stroke-miterlimit="10" d="M53.063,99.25"/>
	<path fill="none" stroke="#14152D" stroke-miterlimit="10" d="M45.5,89.375"/>
	<path fill="none" stroke="#14152D" stroke-miterlimit="10" d="M52.375,89.375"/>
	<path fill="none" stroke="#14152D" stroke-miterlimit="10" d="M45.5,74"/>
	<path fill="none" stroke="#14152D" stroke-miterlimit="10" d="M46.875,89.375"/>
	<path fill="#14152D" d="M24.178,81.357"/>
	<g>
		<g>
			<path fill="#FFFFFF" d="M30.912,36.168c-6.17,0-12.03,3.68-14.68,8.97c-0.1,0.01-0.2,0.02-0.3,0.04
				c-0.19-0.03-0.39-0.04-0.58-0.05c-0.2-0.01-0.41-0.02-0.62-0.02c-2.38,0-4.59,0.74-6.4,2.01c-0.68,0.47-1.29,1.01-1.83,1.61
				c-0.38-1.131-0.59-2.34-0.59-3.59c0-2.38,0.74-4.59,2.01-6.41c0.76-1.08,1.7-2.03,2.79-2.78c1.81-1.27,4.02-2.01,6.4-2.01
				c0.21,0,0.42,0.01,0.62,0.02c0.28,0.01,0.56,0.04,0.84,0.08c2.64-5.33,8.52-9.04,14.72-9.04c0.51,0,0.02,5.66,0.52,5.71
				c0.17-3.73,1.18-7.24,2.85-10.35c4.11-7.71,12.24-12.96,21.59-12.96c10.68,0,19.75,6.84,23.09,16.37c0,0,0,0,0.01,0
				c0.02,0.01,0.039,0.02,0.059,0.02c0.381,0-1.119-5.59-0.75-5.57c8.98,0.53,15.73,7.21,17.031,15.9c0.16,1.01,0.24,2.06,0.24,3.12
				c0,1.91-0.281,3.75-0.801,5.48c-2.129-7.41-8.4-12.85-16.471-13.33c-0.049,0-0.02-0.021-1.02,0.018
				c-0.422-0.031-0.379,0.052-1.08,0.002c-4.379-6.54-11.838-10.84-20.309-10.84c-0.391,0-0.779,0.01-1.16,0.03
				c-0.4-0.02-0.811-0.03-1.221-0.03c-9.35,0-17.479,5.25-21.589,12.96c-0.79,1.47-1.43,3.04-1.9,4.67"/>
		</g>
	</g>
	<g>
		<g>
			<path fill="#FFFFFF" d="M96.69,50.57c0,10.55-8.561,19.1-19.101,19.1H15.87c-6.19,0-11.2-5.02-11.2-11.2
				c0-2.029,0.54-3.939,1.49-5.58c0.16-0.29,0.33-0.56,0.52-0.83c0.29-0.409,0.6-0.8,0.96-1.169c0.54-0.6,1.15-1.14,1.83-1.61
				c1.81-1.27,4.02-2.01,6.4-2.01c0.21,0,0.42,0.01,0.62,0.02c0.19,0.01,0.39,0.02,0.58,0.05c0.09,0.01,0.17,0.02,0.26,0.03
				c0.01-0.02,0.02-0.05,0.04-0.07c2.65-5.29,8.51-8.97,14.68-8.97c0.05,0,0.09,0.06,0.13,0.16c0.29,0.92-0.06,5.51,0.39,5.55
				c0.09-1.96,0.41-3.87,0.95-5.68c0.47-1.63,1.11-3.2,1.9-4.67c4.11-7.71,12.24-12.96,21.59-12.96c0.41,0,0.82,0.01,1.221,0.03
				C68.38,21.26,76.89,27.93,80.1,37.1c0,0,0,0,0.011,0c0.02,0.01,0.04,0.02,0.06,0.02c0.38,0-1.12-5.59-0.75-5.57
				c0.09,0.01,0.19,0.01,0.28,0.02c0.7,0.05,1.38,0.14,2.04,0.26C88.68,33.12,93.97,38.2,95.89,44.88
				c0.24,0.83,0.431,1.69,0.561,2.57c0.069,0.43,0.12,0.87,0.16,1.32C96.66,49.36,96.69,49.97,96.69,50.57z"/>
		</g>
	</g>
</g>
</svg>
