<?xml version="1.0" encoding="utf-8"?>
<!-- Generator: Adobe Illustrator 16.2.0, SVG Export Plug-In . SVG Version: 6.00 Build 0)  -->
<!DOCTYPE svg PUBLIC "-//W3C//DTD SVG 1.1//EN" "http://www.w3.org/Graphics/SVG/1.1/DTD/svg11.dtd">
<svg version="1.1" id="Слой_2" xmlns="http://www.w3.org/2000/svg" xmlns:xlink="http://www.w3.org/1999/xlink" x="0px" y="0px"
	 width="100px" height="100px" viewBox="0 0 100 100" enable-background="new 0 0 100 100" xml:space="preserve">
<g id="Слой_1">
	<path fill="#232856" d="M78.501,31.488"/>
	<g>
		<g>
			<path fill="#FFFFFF" d="M96.69,50.57c0,10.55-8.561,19.1-19.101,19.1H15.87c-6.19,0-11.2-5.02-11.2-11.2
				c0-6.189,5.01-11.2,11.2-11.2c0.208,0,0.415,0.005,0.622,0.017c0.281,0.016,0.562,0.042,0.838,0.083
				c2.64-5.33,8.52-9.04,14.72-9.04c0.51,0,0.02,5.66,0.52,5.71c0.6-12.97,11.32-23.31,24.44-23.31c10.681,0,19.75,6.84,23.09,16.37
				c0,0,0,0,0.011,0c0.02,0.01,0.04,0.02,0.06,0.02c0.38,0-1.12-5.59-0.75-5.57C89.45,32.14,96.69,40.4,96.69,50.57z"/>
		</g>
	</g>
	<path fill="none" stroke="#14152D" stroke-miterlimit="10" d="M52.375,74"/>
	<path fill="none" stroke="#14152D" stroke-miterlimit="10" d="M44.5,74"/>
	<path fill="none" stroke="#14152D" stroke-miterlimit="10" d="M50,86.5"/>
	<path fill="none" stroke="#14152D" stroke-miterlimit="10" d="M52.375,74"/>
	<path fill="none" stroke="#14152D" stroke-miterlimit="10" d="M56.125,86.5"/>
	<path fill="none" stroke="#14152D" stroke-miterlimit="10" d="M50,86.5"/>
	<path fill="none" stroke="#14152D" stroke-miterlimit="10" d="M53.063,99.25"/>
	<path fill="none" stroke="#14152D" stroke-miterlimit="10" d="M56.125,86.5"/>
	<path fill="none" stroke="#14152D" stroke-miterlimit="10" d="M52.375,89.375"/>
	<path fill="none" stroke="#14152D" stroke-miterlimit="10" d="M53.063,99.25"/>
	<path fill="none" stroke="#14152D" stroke-miterlimit="10" d="M45.5,89.375"/>
	<path fill="none" stroke="#14152D" stroke-miterlimit="10" d="M52.375,89.375"/>
	<path fill="none" stroke="#14152D" stroke-miterlimit="10" d="M45.5,74"/>
	<path fill="none" stroke="#14152D" stroke-miterlimit="10" d="M46.875,89.375"/>
	<path fill="#14152D" d="M24.178,81.357"/>
</g>
<polygon fill="#FFFFFF" points="17.86,99.25 13.352,99.25 20.118,74 24.625,74 "/>
<polygon fill="#FFFFFF" points="26.716,99.375 22.208,99.375 28.974,74.125 33.482,74.125 "/>
<polygon fill="#FFFFFF" points="35.526,99.375 31.018,99.375 37.784,74.125 42.292,74.125 "/>
<polygon fill="#FFFFFF" points="70.882,99.313 66.374,99.313 73.14,74.063 77.647,74.063 "/>
<polygon fill="#FFFFFF" points="53.228,99.438 48.72,99.438 55.485,74.188 59.993,74.188 "/>
<polygon fill="#FFFFFF" points="62.038,99.438 57.53,99.438 64.296,74.188 68.804,74.188 "/>
<polygon fill="#FFFFFF" points="44.329,99.438 39.821,99.438 46.586,74.188 51.095,74.188 "/>
<g>
	<g>
		<path fill="#FFFFFF" d="M30.909,36.168c-6.17,0-12.03,3.68-14.68,8.971c-0.1,0.01-0.2,0.02-0.3,0.039
			c-0.19-0.029-0.39-0.039-0.58-0.05c-0.2-0.01-0.41-0.021-0.62-0.021c-2.38,0-4.59,0.74-6.4,2.011c-0.68,0.47-1.29,1.01-1.83,1.61
			c-0.38-1.131-0.59-2.34-0.59-3.59c0-2.381,0.74-4.591,2.01-6.41c0.76-1.08,1.7-2.03,2.79-2.78c1.81-1.271,4.02-2.011,6.4-2.011
			c0.21,0,0.42,0.011,0.62,0.021c0.28,0.011,0.56,0.04,0.84,0.08c2.64-5.33,8.52-9.04,14.72-9.04c0.51,0,0.02,5.66,0.52,5.71
			c0.17-3.73,1.18-7.24,2.85-10.35c4.11-7.71,12.24-12.96,21.59-12.96c10.68,0,19.75,6.84,23.09,16.37c0,0,0,0,0.01,0
			c0.02,0.01,0.039,0.02,0.059,0.02c0.381,0-1.119-5.59-0.75-5.57c8.98,0.53,15.73,7.21,17.031,15.9c0.16,1.01,0.24,2.06,0.24,3.12
			c0,1.91-0.281,3.75-0.801,5.48c-2.129-7.41-8.4-12.851-16.471-13.331c-0.049,0-0.02-0.021-1.02,0.018
			c-0.422-0.031-0.379,0.052-1.08,0.002c-4.379-6.54-11.838-10.84-20.309-10.84c-0.391,0-0.779,0.01-1.16,0.03
			c-0.4-0.02-0.811-0.03-1.221-0.03c-9.349,0-17.479,5.25-21.589,12.96c-0.79,1.47-1.43,3.041-1.9,4.67"/>
	</g>
</g>
</svg>
