<?xml version="1.0" encoding="utf-8"?>
<!-- Generator: Adobe Illustrator 16.2.0, SVG Export Plug-In . SVG Version: 6.00 Build 0)  -->
<!DOCTYPE svg PUBLIC "-//W3C//DTD SVG 1.1//EN" "http://www.w3.org/Graphics/SVG/1.1/DTD/svg11.dtd">
<svg version="1.1" id="Слой_2" xmlns="http://www.w3.org/2000/svg" xmlns:xlink="http://www.w3.org/1999/xlink" x="0px" y="0px"
	 width="100px" height="100px" viewBox="0 0 100 100" enable-background="new 0 0 100 100" xml:space="preserve">
<g id="Слой_1">
	<path fill="#232856" d="M78.501,31.488"/>
	<path fill="none" stroke="#14152D" stroke-miterlimit="10" d="M52.375,74"/>
	<path fill="none" stroke="#14152D" stroke-miterlimit="10" d="M44.5,74"/>
	<path fill="none" stroke="#14152D" stroke-miterlimit="10" d="M50,86.5"/>
	<path fill="none" stroke="#14152D" stroke-miterlimit="10" d="M52.375,74"/>
	<path fill="none" stroke="#14152D" stroke-miterlimit="10" d="M56.125,86.5"/>
	<path fill="none" stroke="#14152D" stroke-miterlimit="10" d="M50,86.5"/>
	<path fill="none" stroke="#14152D" stroke-miterlimit="10" d="M53.063,99.25"/>
	<path fill="none" stroke="#14152D" stroke-miterlimit="10" d="M56.125,86.5"/>
	<path fill="none" stroke="#14152D" stroke-miterlimit="10" d="M52.375,89.375"/>
	<path fill="none" stroke="#14152D" stroke-miterlimit="10" d="M53.063,99.25"/>
	<path fill="none" stroke="#14152D" stroke-miterlimit="10" d="M45.5,89.375"/>
	<path fill="none" stroke="#14152D" stroke-miterlimit="10" d="M52.375,89.375"/>
	<path fill="none" stroke="#14152D" stroke-miterlimit="10" d="M45.5,74"/>
	<path fill="none" stroke="#14152D" stroke-miterlimit="10" d="M46.875,89.375"/>
	<path fill="#14152D" d="M24.178,81.357"/>
	<path fill="#FFFFFF" d="M85.118,50c0,2.4-1.94,4.339-4.33,4.339v0.021h-62.5c-2.39,0-4.33-1.941-4.33-4.331
		c0-2.39,1.94-4.33,4.33-4.33v-0.06h62.5v0.029C83.178,45.67,85.118,47.61,85.118,50z"/>
	<path fill="#FFFFFF" d="M94.88,32.584c0,2.39-1.939,4.34-4.34,4.34H39.38c-2.4,0-4.34-1.95-4.34-4.34
		c0-2.391,1.94-4.331,4.34-4.331v-0.05h51.16v0.05C92.94,28.254,94.88,30.194,94.88,32.584z"/>
	<path fill="#FFFFFF" d="M25.788,32.589c0,2.39-1.939,4.33-4.33,4.33h-11c-2.391,0-4.33-1.94-4.33-4.33
		c0-2.391,1.939-4.33,4.33-4.33v-0.05h11v0.05C23.849,28.259,25.788,30.199,25.788,32.589z"/>
	<path fill="#FFFFFF" d="M64.961,67.455c0,2.391-1.939,4.34-4.34,4.34H9.461c-2.4,0-4.34-1.949-4.34-4.34s1.94-4.33,4.34-4.33
		v-0.051h51.16v0.051C63.021,63.125,64.961,65.064,64.961,67.455z"/>
	<path fill="#FFFFFF" d="M93.955,67.461c0,2.389-1.939,4.33-4.33,4.33h-11c-2.391,0-4.33-1.941-4.33-4.33
		c0-2.391,1.939-4.33,4.33-4.33V63.08h11v0.051C92.016,63.131,93.955,65.07,93.955,67.461z"/>
	<path fill="#FFFFFF" d="M82.083,84.891c0,2.4-1.939,4.34-4.33,4.34h-21.5c-2.399,0-4.34-1.939-4.34-4.34
		c0-2.391,1.94-4.33,4.34-4.33V80.51h21.5v0.051C80.144,80.561,82.083,82.5,82.083,84.891z"/>
	<path fill="#FFFFFF" d="M46.413,15.15c0,2.4-1.94,4.34-4.33,4.34h-21.5c-2.4,0-4.34-1.939-4.34-4.34c0-2.39,1.94-4.33,4.34-4.33
		v-0.05h21.5v0.05C44.473,10.82,46.413,12.76,46.413,15.15z"/>
</g>
</svg>
