<?xml version="1.0" encoding="utf-8"?>
<!-- Generator: Adobe Illustrator 24.0.2, SVG Export Plug-In . SVG Version: 6.00 Build 0)  -->
<svg version="1.2" baseProfile="tiny" id="Слой_1"
	 xmlns="http://www.w3.org/2000/svg" xmlns:xlink="http://www.w3.org/1999/xlink" x="0px" y="0px" viewBox="0 0 30 30"
	 xml:space="preserve">
<g>
	<path d="M6.87,23.84l-0.71-0.71c-0.59-0.59-0.59-1.53,0-2.12L21.01,6.16c0.59-0.59,1.53-0.59,2.12,0l0.71,0.71
		c0.59,0.59,0.59,1.53,0,2.12L8.99,23.84C8.4,24.43,7.45,24.43,6.87,23.84z"/>
	<path d="M6.16,6.87l0.71-0.71c0.59-0.59,1.53-0.59,2.12,0l14.85,14.85c0.59,0.59,0.59,1.53,0,2.12l-0.71,0.71
		c-0.59,0.59-1.53,0.59-2.12,0L6.16,8.99C5.57,8.4,5.57,7.45,6.16,6.87z"/>
</g>
</svg>
