<?xml version="1.0" encoding="utf-8"?>
<!-- Generator: Adobe Illustrator 24.0.2, SVG Export Plug-In . SVG Version: 6.00 Build 0)  -->
<svg version="1.2" baseProfile="tiny" id="Слой_1"
	 xmlns="http://www.w3.org/2000/svg" xmlns:xlink="http://www.w3.org/1999/xlink" x="0px" y="0px" viewBox="0 0 50 50"
	 xml:space="preserve">
<path fill="#070707" d="M29.12,15.25"/>
<line fill="none" x1="10.5" y1="36" x2="10" y2="36"/>
<line fill="none" x1="30" y1="36" x2="29.5" y2="36"/>
<path fill="#FFFFFF" d="M49,27.37C49,33.24,44.24,38,38.37,38H8.54c-1.02,0-1.39,0-2.08,0c-3.47,0-6.19-2.49-6.19-5.97
	c0-3.47,2.82-6.29,6.29-6.29c0.36,0,0.72,0.03,1.06,0.1c0.46-2.17,2.38-3.8,4.69-3.8c0.68,0,1.32,0.14,1.9,0.39
	c1.28-5.7,6.36-9.96,12.45-9.96c3.87,0,7.34,1.72,9.69,4.45c0.3-0.06,0.61-0.1,0.92-0.14c0.36-0.04,0.72-0.06,1.09-0.06
	C44.24,16.73,49,21.49,49,27.37z"/>
<line fill="none" x1="8.96" y1="36" x2="7" y2="36"/>
</svg>
