<?xml version="1.0" encoding="utf-8"?>
<!-- Generator: Adobe Illustrator 24.0.2, SVG Export Plug-In . SVG Version: 6.00 Build 0)  -->
<svg version="1.2" baseProfile="tiny" id="Слой_1"
	 xmlns="http://www.w3.org/2000/svg" xmlns:xlink="http://www.w3.org/1999/xlink" x="0px" y="0px" viewBox="0 0 50 50"
	 xml:space="preserve">
<path fill="none" stroke="#FFFFFF" stroke-width="3" stroke-miterlimit="10" d="M36.47,47.47l-9.72-9.72
	c-0.69-0.69-1.81-0.69-2.51,0l-9.72,9.72c-1.12,1.12-3.03,0.33-3.03-1.25V4.27c0-0.98,0.79-1.77,1.77-1.77h24.45
	c0.98,0,1.77,0.79,1.77,1.77v41.95C39.5,47.8,37.59,48.59,36.47,47.47z"/>
<path d="M26,45"/>
<path fill="#FFFFFF" d="M34.29,15.57c0,4.57-9.14,11.43-9.14,11.43S16,20.14,16,15.57c0-2.53,2.05-4.57,4.57-4.57
	s4.57,2.05,4.57,4.57c0-2.53,2.05-4.57,4.57-4.57S34.29,13.05,34.29,15.57z"/>
</svg>
