<?xml version="1.0" encoding="utf-8"?>
<!-- Generator: Adobe Illustrator 24.0.2, SVG Export Plug-In . SVG Version: 6.00 Build 0)  -->
<svg version="1.2" baseProfile="tiny" id="Слой_1"
	 xmlns="http://www.w3.org/2000/svg" xmlns:xlink="http://www.w3.org/1999/xlink" x="0px" y="0px" viewBox="0 0 50 50"
	 xml:space="preserve">
<path fill="none" stroke="#FFFFFF" stroke-width="2" stroke-miterlimit="10" d="M11.09,4.36v5.92c0,1.95,0.24,3.93,1.03,5.71
	c1.45,3.28,1.79,5.25-1.03,9.49C8.6,29.21,8.6,31.7,10.32,35.55c0.43,0.97,0.77,1.96,0.77,3.02v0.58"/>
<g>
	<polygon fill="#FFFFFF" points="16.05,39.15 11.08,45.36 6.11,39.15 	"/>
</g>
<path fill="none" stroke="#FFFFFF" stroke-width="2" stroke-miterlimit="10" d="M23.09,4.36v5.92c0,1.95,0.24,3.93,1.03,5.71
	c1.45,3.28,1.79,5.25-1.03,9.49c-2.48,3.73-2.48,6.21-0.77,10.06c0.43,0.97,0.77,1.96,0.77,3.02v0.58"/>
<g>
	<polygon fill="#FFFFFF" points="28.05,39.15 23.08,45.36 18.11,39.15 	"/>
</g>
<rect x="33" y="4" fill="#FFFFFF" width="11" height="6"/>
<rect x="33" y="40" fill="#FFFFFF" width="11" height="6"/>
<rect x="33" y="22" fill="#FFFFFF" width="11" height="6"/>
<rect x="37.2" y="31.07" fill="#FFFFFF" width="6.8" height="6"/>
<rect x="37.3" y="13.07" fill="#FFFFFF" width="6.8" height="6"/>
</svg>
