<?xml version="1.0" encoding="utf-8"?>
<!-- Generator: Adobe Illustrator 16.2.0, SVG Export Plug-In . SVG Version: 6.00 Build 0)  -->
<!DOCTYPE svg PUBLIC "-//W3C//DTD SVG 1.1//EN" "http://www.w3.org/Graphics/SVG/1.1/DTD/svg11.dtd">
<svg version="1.1" id="Слой_1" xmlns="http://www.w3.org/2000/svg" xmlns:xlink="http://www.w3.org/1999/xlink" x="0px" y="0px"
	 width="0px" height="0px" viewBox="0 0 50 50" enable-background="new 0 0 50 50" xml:space="preserve">
<rect x="12" y="3" fill="#FFFFFF" width="4" height="21"/>
<g>
	<defs>
		<rect id="SVGID_1_" width="50" height="50"/>
	</defs>
	<clipPath id="SVGID_2_">
		<use xlink:href="#SVGID_1_"  overflow="visible"/>
	</clipPath>
	<path clip-path="url(#SVGID_2_)" fill="none" stroke="#FFFFFF" stroke-width="3" stroke-miterlimit="10" d="M17.995,38.5h-7.489
		C8.57,38.5,7,36.931,7,34.995v-7.49C7,25.569,8.57,24,10.505,24h7.489c1.936,0,3.505,1.569,3.505,3.505v7.49
		C21.5,36.931,19.931,38.5,17.995,38.5z"/>
	<rect x="12" y="38" clip-path="url(#SVGID_2_)" fill="#FFFFFF" width="4" height="10"/>
	<rect x="33.045" y="27.079" clip-path="url(#SVGID_2_)" fill="#FFFFFF" width="4" height="21"/>
	<path clip-path="url(#SVGID_2_)" fill="none" stroke="#FFFFFF" stroke-width="3" stroke-miterlimit="10" d="M39.039,12.579H31.55
		c-1.936,0-3.505,1.569-3.505,3.505v7.49c0,1.936,1.569,3.505,3.505,3.505h7.489c1.938,0,3.506-1.569,3.506-3.505v-7.49
		C42.545,14.148,40.977,12.579,39.039,12.579z"/>
	<rect x="33.045" y="3.079" clip-path="url(#SVGID_2_)" fill="#FFFFFF" width="4" height="10"/>
</g>
</svg>
