<?xml version="1.0" encoding="utf-8"?>
<!-- Generator: Adobe Illustrator 24.0.2, SVG Export Plug-In . SVG Version: 6.00 Build 0)  -->
<svg version="1.2" baseProfile="tiny" id="Слой_1"
	 xmlns="http://www.w3.org/2000/svg" xmlns:xlink="http://www.w3.org/1999/xlink" x="0px" y="0px" viewBox="0 0 50 50"
	 xml:space="preserve">
<rect x="12" y="3" fill="#FFFFFF" width="4" height="21"/>
<path fill="none" stroke="#FFFFFF" stroke-width="3" stroke-miterlimit="10" d="M17.99,38.5h-7.49C8.57,38.5,7,36.93,7,34.99v-7.49
	C7,25.57,8.57,24,10.51,24h7.49c1.94,0,3.51,1.57,3.51,3.51v7.49C21.5,36.93,19.93,38.5,17.99,38.5z"/>
<rect x="12" y="38" fill="#FFFFFF" width="4" height="10"/>
<rect x="33.04" y="27.08" fill="#FFFFFF" width="4" height="21"/>
<path fill="none" stroke="#FFFFFF" stroke-width="3" stroke-miterlimit="10" d="M39.04,12.58h-7.49c-1.94,0-3.51,1.57-3.51,3.51
	v7.49c0,1.94,1.57,3.51,3.51,3.51h7.49c1.94,0,3.51-1.57,3.51-3.51v-7.49C42.54,14.15,40.98,12.58,39.04,12.58z"/>
<rect x="33.04" y="3.08" fill="#FFFFFF" width="4" height="10"/>
</svg>
